<svg width="11" height="12" viewBox="0 0 11 12" fill="none" xmlns="http://www.w3.org/2000/svg">
<path d="M1.91667 11.8333C1.59583 11.8333 1.32108 11.719 1.09242 11.4903C0.863751 11.2617 0.749612 10.9871 0.750001 10.6667V2.50001H1.91667V10.6667H8.33333V11.8333H1.91667ZM4.25 9.50001C3.92917 9.50001 3.65442 9.38567 3.42575 9.15701C3.19708 8.92834 3.08295 8.65378 3.08333 8.33334V1.33334C3.08333 1.01251 3.19767 0.737756 3.42633 0.509089C3.655 0.280423 3.92956 0.166284 4.25 0.166673H9.5C9.82083 0.166673 10.0956 0.281006 10.3243 0.509673C10.5529 0.738339 10.6671 1.01289 10.6667 1.33334V8.33334C10.6667 8.65417 10.5523 8.92892 10.3237 9.15759C10.095 9.38626 9.82045 9.50039 9.5 9.50001H4.25ZM4.25 8.33334H9.5V1.33334H4.25V8.33334Z" fill="#808080"/>
</svg>
