<svg width="40" height="12" viewBox="0 0 40 12" fill="none" xmlns="http://www.w3.org/2000/svg">
<path d="M0.269531 0.632812C0.535156 0.671875 0.769531 0.699219 0.972656 0.714844C1.18359 0.730469 1.35938 0.746094 1.5 0.761719C1.66406 0.777344 1.80469 0.785156 1.92188 0.785156H2.37891C2.68359 0.785156 3.1875 0.773438 3.89062 0.75C3.71875 0.804687 3.57422 0.882813 3.45703 0.984375C3.34766 1.08594 3.25781 1.19141 3.1875 1.30078C3.10156 1.42578 3.03906 1.55469 3 1.6875C2.95312 1.85156 2.91016 2.07031 2.87109 2.34375C2.83203 2.58594 2.79297 2.90234 2.75391 3.29297C2.72266 3.68359 2.69141 4.17188 2.66016 4.75781C2.99609 4.375 3.28906 4.03516 3.53906 3.73828C3.79688 3.44141 4.01953 3.17969 4.20703 2.95312C4.39453 2.72656 4.55078 2.53125 4.67578 2.36719C4.80859 2.20312 4.91797 2.0625 5.00391 1.94531C5.20703 1.67969 5.32422 1.5 5.35547 1.40625C5.36328 1.35156 5.35938 1.28516 5.34375 1.20703C5.32812 1.14453 5.30469 1.07031 5.27344 0.984375C5.24219 0.890625 5.19531 0.789063 5.13281 0.679688C5.44531 0.695313 5.71094 0.707031 5.92969 0.714844C6.15625 0.722656 6.34375 0.730469 6.49219 0.738281C6.66406 0.746094 6.80469 0.75 6.91406 0.75H7.40625C7.58594 0.75 7.82031 0.75 8.10938 0.75C8.39844 0.742188 8.76172 0.734375 9.19922 0.726562C8.91016 0.796875 8.63672 0.890625 8.37891 1.00781C8.12109 1.125 7.89062 1.23828 7.6875 1.34766C7.45312 1.48047 7.23438 1.61719 7.03125 1.75781C6.82812 1.91406 6.60156 2.09766 6.35156 2.30859C6.14062 2.48828 5.89453 2.71094 5.61328 2.97656C5.33203 3.23438 5.02734 3.53516 4.69922 3.87891C5.05078 4.56641 5.35547 5.13281 5.61328 5.57812C5.87891 6.01562 6.10156 6.36719 6.28125 6.63281C6.48438 6.94531 6.65625 7.18359 6.79688 7.34766C6.9375 7.49609 7.10156 7.64844 7.28906 7.80469C7.44531 7.9375 7.64062 8.08594 7.875 8.25C8.10938 8.40625 8.37891 8.55859 8.68359 8.70703L5.34375 8.87109C5.39062 8.80859 5.41797 8.73438 5.42578 8.64844C5.44141 8.55469 5.44922 8.46875 5.44922 8.39062C5.44922 8.30469 5.44141 8.21094 5.42578 8.10938C5.39453 7.98438 5.3125 7.78125 5.17969 7.5C5.07031 7.25781 4.90234 6.91797 4.67578 6.48047C4.44922 6.03516 4.13672 5.44922 3.73828 4.72266L2.74219 5.76562C2.70312 6.01562 2.68359 6.24219 2.68359 6.44531C2.68359 6.64844 2.69141 6.81641 2.70703 6.94922C2.73047 7.11328 2.76172 7.25391 2.80078 7.37109C2.84766 7.48828 2.91406 7.62109 3 7.76953C3.07031 7.90234 3.16406 8.05859 3.28125 8.23828C3.39844 8.41797 3.54688 8.61719 3.72656 8.83594C3.54688 8.78906 3.36719 8.75781 3.1875 8.74219C3.00781 8.71875 2.84375 8.70312 2.69531 8.69531C2.52344 8.6875 2.35938 8.69141 2.20312 8.70703C2.03906 8.72266 1.84766 8.74609 1.62891 8.77734C1.44141 8.80859 1.21094 8.84766 0.9375 8.89453C0.664062 8.94141 0.351562 9 0 9.07031C0.171875 8.96875 0.308594 8.85938 0.410156 8.74219C0.511719 8.625 0.59375 8.51172 0.65625 8.40234C0.726562 8.27734 0.773438 8.15625 0.796875 8.03906C0.8125 7.9375 0.824219 7.71875 0.832031 7.38281C0.847656 7.04688 0.855469 6.65625 0.855469 6.21094C0.863281 5.75781 0.863281 5.28125 0.855469 4.78125C0.847656 4.28125 0.839844 3.8125 0.832031 3.375C0.824219 2.9375 0.8125 2.56641 0.796875 2.26172C0.789062 1.94922 0.78125 1.75781 0.773438 1.6875C0.75 1.57812 0.71875 1.46094 0.679688 1.33594C0.640625 1.22656 0.585938 1.11328 0.515625 0.996094C0.453125 0.871094 0.371094 0.75 0.269531 0.632812ZM10.5586 7.11328C10.7773 7.11328 10.9805 7.08984 11.168 7.04297C11.3242 7.00391 11.4727 6.94141 11.6133 6.85547C11.7617 6.76172 11.8594 6.625 11.9062 6.44531C12.0625 6.47656 12.1953 6.50391 12.3047 6.52734C12.4141 6.54297 12.5078 6.55859 12.5859 6.57422C12.6719 6.59766 12.7461 6.61328 12.8086 6.62109C12.8711 6.63672 12.9453 6.65234 13.0312 6.66797C13.1094 6.68359 13.2031 6.70312 13.3125 6.72656C13.4297 6.74219 13.5664 6.76562 13.7227 6.79688C13.6055 6.78125 13.4844 6.79297 13.3594 6.83203C13.2422 6.87109 13.1289 6.91406 13.0195 6.96094C12.8945 7.01562 12.7773 7.08203 12.668 7.16016C12.5977 7.20703 12.5156 7.27734 12.4219 7.37109C12.3359 7.46484 12.2109 7.55469 12.0469 7.64062C11.8828 7.72656 11.6641 7.80078 11.3906 7.86328C11.125 7.91797 10.7812 7.9375 10.3594 7.92188C9.85156 7.90625 9.42578 7.81641 9.08203 7.65234C8.73828 7.48047 8.46094 7.27344 8.25 7.03125C8.03906 6.78125 7.88672 6.51172 7.79297 6.22266C7.69922 5.93359 7.64844 5.66406 7.64062 5.41406C7.63281 5.16406 7.70703 4.90234 7.86328 4.62891C8.01953 4.35547 8.23828 4.10547 8.51953 3.87891C8.80859 3.65234 9.15625 3.46875 9.5625 3.32812C9.96875 3.17969 10.4141 3.10547 10.8984 3.10547C11.1797 3.10547 11.4375 3.14062 11.6719 3.21094C11.9141 3.27344 12.1328 3.35938 12.3281 3.46875C12.5312 3.57812 12.707 3.70312 12.8555 3.84375C13.0039 3.97656 13.1289 4.11328 13.2305 4.25391C13.332 4.40234 13.418 4.55859 13.4883 4.72266C13.5508 4.86328 13.6016 5.02344 13.6406 5.20312C13.6797 5.38281 13.6914 5.56641 13.6758 5.75391C13.082 5.76953 12.6016 5.78125 12.2344 5.78906C11.875 5.79688 11.5938 5.80078 11.3906 5.80078H10.8633H10.4648C10.3242 5.80078 10.1406 5.80469 9.91406 5.8125C9.6875 5.82031 9.41016 5.83203 9.08203 5.84766C9.12109 6.16016 9.21875 6.40234 9.375 6.57422C9.53906 6.73828 9.71094 6.86328 9.89062 6.94922C10.0938 7.04297 10.3164 7.09766 10.5586 7.11328ZM9.50391 5.00391C9.75391 5.01953 9.96094 5.03125 10.125 5.03906C10.2969 5.04688 10.4375 5.05469 10.5469 5.0625C10.6641 5.07031 10.7578 5.07422 10.8281 5.07422H11.1211C11.3164 5.07422 11.6797 5.0625 12.2109 5.03906C12.1875 4.69531 12.1133 4.43359 11.9883 4.25391C11.8711 4.07422 11.7461 3.94141 11.6133 3.85547C11.457 3.76172 11.2852 3.70703 11.0977 3.69141C10.5898 3.69922 10.2109 3.80469 9.96094 4.00781C9.71875 4.21094 9.56641 4.54297 9.50391 5.00391ZM13.5469 3.01172C13.7031 3.03516 13.8438 3.05469 13.9688 3.07031C14.0859 3.07812 14.1914 3.08594 14.2852 3.09375C14.3867 3.10156 14.4844 3.10547 14.5781 3.10547C14.6641 3.10547 14.7734 3.10156 14.9062 3.09375C15.0156 3.08594 15.1562 3.07812 15.3281 3.07031C15.5078 3.05469 15.7188 3.03516 15.9609 3.01172C15.9453 3.04297 15.9141 3.14062 15.8672 3.30469C15.8203 3.46094 15.7734 3.65625 15.7266 3.89062C15.6797 4.11719 15.6367 4.37109 15.5977 4.65234C15.5664 4.92578 15.5508 5.19922 15.5508 5.47266C15.5586 5.73828 15.5938 5.99219 15.6562 6.23438C15.7188 6.46875 15.8203 6.66016 15.9609 6.80859C16.2578 7.11328 16.5195 7.29688 16.7461 7.35938C16.9805 7.42188 17.1836 7.41406 17.3555 7.33594C17.5273 7.25781 17.668 7.14062 17.7773 6.98438C17.8867 6.82812 17.9648 6.68359 18.0117 6.55078C18.1289 6.19141 18.1992 5.8125 18.2227 5.41406C18.2383 5.07031 18.2109 4.6875 18.1406 4.26562C18.0703 3.84375 17.9023 3.41406 17.6367 2.97656C17.8398 2.99219 18.0156 3.00391 18.1641 3.01172C18.3125 3.01953 18.4414 3.02734 18.5508 3.03516C18.6758 3.04297 18.7852 3.05078 18.8789 3.05859C18.9648 3.06641 19.0664 3.06641 19.1836 3.05859C19.2852 3.05859 19.4062 3.05469 19.5469 3.04688C19.6953 3.03125 19.8594 3.01562 20.0391 3C20.0703 3.76562 20.0977 4.44922 20.1211 5.05078C20.1445 5.64453 20.1602 6.17188 20.168 6.63281C20.1836 7.08594 20.1914 7.48047 20.1914 7.81641C20.1914 8.14453 20.1914 8.42188 20.1914 8.64844C20.1836 9.1875 20.1602 9.54297 20.1211 9.71484C20.0586 9.95703 19.9453 10.1992 19.7812 10.4414C19.625 10.6836 19.4258 10.8984 19.1836 11.0859C18.9414 11.2812 18.6602 11.4297 18.3398 11.5312C18.0273 11.6406 17.6836 11.6797 17.3086 11.6484C16.9414 11.6172 16.6484 11.5664 16.4297 11.4961C16.2188 11.4336 16.0508 11.3594 15.9258 11.2734C15.8086 11.1875 15.7227 11.0977 15.668 11.0039C15.6211 10.9102 15.5859 10.8125 15.5625 10.7109C15.5391 10.6172 15.5156 10.5273 15.4922 10.4414C15.4688 10.3555 15.4219 10.2812 15.3516 10.2188C15.2656 10.1484 15.1758 10.0781 15.082 10.0078C14.9961 9.94531 14.9023 9.88281 14.8008 9.82031C14.707 9.75781 14.6133 9.70703 14.5195 9.66797L17.0156 9.52734C16.9453 9.62109 16.8945 9.70703 16.8633 9.78516C16.832 9.86328 16.8125 9.92969 16.8047 9.98438C16.7969 10.0547 16.8008 10.1133 16.8164 10.1602C16.8477 10.2539 16.9023 10.3555 16.9805 10.4648C17.0664 10.582 17.1758 10.6719 17.3086 10.7344C17.4414 10.8047 17.5977 10.8281 17.7773 10.8047C17.9648 10.7812 18.1758 10.6836 18.4102 10.5117C18.6055 10.3633 18.7695 10.125 18.9023 9.79688C19.0117 9.51562 19.0977 9.12109 19.1602 8.61328C19.2227 8.10547 19.2109 7.4375 19.125 6.60938C18.9844 7.09375 18.793 7.46484 18.5508 7.72266C18.3086 7.98047 18.0664 8.16797 17.8242 8.28516C17.543 8.42578 17.25 8.5 16.9453 8.50781C16.5391 8.49219 16.1914 8.44141 15.9023 8.35547C15.6133 8.26172 15.375 8.13672 15.1875 7.98047C15 7.82422 14.8516 7.64062 14.7422 7.42969C14.6406 7.21094 14.5664 6.96875 14.5195 6.70312C14.4727 6.4375 14.4492 6.17188 14.4492 5.90625C14.4492 5.63281 14.4492 5.37891 14.4492 5.14453C14.457 4.91016 14.4609 4.69922 14.4609 4.51172C14.4609 4.31641 14.4414 4.16016 14.4023 4.04297C14.3555 3.92578 14.293 3.80859 14.2148 3.69141C14.1523 3.58984 14.0664 3.48047 13.957 3.36328C13.8398 3.23828 13.7031 3.12109 13.5469 3.01172ZM20.8359 1.61719C21.0703 1.64062 21.2656 1.66016 21.4219 1.67578C21.5859 1.69141 21.7188 1.70312 21.8203 1.71094C21.9375 1.71875 22.0312 1.72266 22.1016 1.72266C22.1719 1.73047 22.2656 1.73047 22.3828 1.72266C22.4844 1.71484 22.6172 1.70703 22.7812 1.69922C22.9453 1.68359 23.1523 1.66016 23.4023 1.62891C23.3477 1.70703 23.3047 1.77734 23.2734 1.83984C23.2422 1.89453 23.2148 1.94531 23.1914 1.99219L23.1211 2.13281C23.1055 2.17969 23.0898 2.22656 23.0742 2.27344C23.0586 2.3125 23.043 2.35938 23.0273 2.41406C23.0195 2.46875 23.0117 2.52734 23.0039 2.58984H24.8086L24.6445 3.53906L22.9922 3.44531C22.9531 3.84375 22.9258 4.15234 22.9102 4.37109C22.8945 4.58984 22.8789 4.75 22.8633 4.85156L22.8398 5.0625C22.8164 5.35938 22.793 5.68359 22.7695 6.03516C22.7461 6.37891 22.7383 6.69922 22.7461 6.99609C22.7539 7.29297 22.7812 7.54297 22.8281 7.74609C22.875 7.94141 22.957 8.03906 23.0742 8.03906C23.1914 8.03906 23.3008 8.00781 23.4023 7.94531C23.5039 7.88281 23.5898 7.80859 23.6602 7.72266C23.7383 7.63672 23.7969 7.55078 23.8359 7.46484C23.875 7.37109 23.8945 7.30078 23.8945 7.25391C23.8945 7.20703 23.8828 7.15234 23.8594 7.08984C23.8203 6.97266 23.75 6.82422 23.6484 6.64453C23.875 6.69922 24.0742 6.75391 24.2461 6.80859C24.332 6.83984 24.4102 6.87109 24.4805 6.90234C24.5586 6.93359 24.6484 6.96875 24.75 7.00781C24.8359 7.04688 24.9453 7.09375 25.0781 7.14844C25.2109 7.20312 25.3672 7.26953 25.5469 7.34766C25.375 7.37891 25.25 7.42969 25.1719 7.5C25.125 7.53125 25.0898 7.56641 25.0664 7.60547C25.0117 7.69141 24.9492 7.80859 24.8789 7.95703C24.8086 8.09766 24.7031 8.23828 24.5625 8.37891C24.4219 8.51953 24.2305 8.64453 23.9883 8.75391C23.7539 8.86328 23.4375 8.92578 23.0391 8.94141C22.625 8.95703 22.3086 8.88672 22.0898 8.73047C21.8789 8.57422 21.7227 8.39453 21.6211 8.19141C21.5273 7.98047 21.4727 7.77344 21.457 7.57031C21.4414 7.36719 21.4297 7.23047 21.4219 7.16016C21.4141 7.08984 21.4141 6.91406 21.4219 6.63281C21.4297 6.35156 21.4414 6.04297 21.457 5.70703C21.4727 5.36328 21.4883 5.03516 21.5039 4.72266C21.5195 4.40234 21.5273 4.16797 21.5273 4.01953C21.5273 3.94141 21.5312 3.85938 21.5391 3.77344C21.5391 3.70312 21.5391 3.62891 21.5391 3.55078C21.5469 3.46484 21.5508 3.38281 21.5508 3.30469L19.8516 3.29297L19.7812 2.625L21.4922 2.67188C21.4766 2.58594 21.457 2.50781 21.4336 2.4375C21.418 2.35938 21.4023 2.29688 21.3867 2.25C21.3633 2.19531 21.3398 2.14844 21.3164 2.10938C21.2852 2.07031 21.25 2.02734 21.2109 1.98047C21.1719 1.94141 21.1211 1.89062 21.0586 1.82812C20.9961 1.76562 20.9219 1.69531 20.8359 1.61719ZM28.1133 7.11328C28.332 7.11328 28.5352 7.08984 28.7227 7.04297C28.8789 7.00391 29.0273 6.94141 29.168 6.85547C29.3164 6.76172 29.4141 6.625 29.4609 6.44531C29.6172 6.47656 29.75 6.50391 29.8594 6.52734C29.9688 6.54297 30.0625 6.55859 30.1406 6.57422C30.2266 6.59766 30.3008 6.61328 30.3633 6.62109C30.4258 6.63672 30.5 6.65234 30.5859 6.66797C30.6641 6.68359 30.7578 6.70312 30.8672 6.72656C30.9844 6.74219 31.1211 6.76562 31.2773 6.79688C31.1602 6.78125 31.0391 6.79297 30.9141 6.83203C30.7969 6.87109 30.6836 6.91406 30.5742 6.96094C30.4492 7.01562 30.332 7.08203 30.2227 7.16016C30.1523 7.20703 30.0703 7.27734 29.9766 7.37109C29.8906 7.46484 29.7656 7.55469 29.6016 7.64062C29.4375 7.72656 29.2188 7.80078 28.9453 7.86328C28.6797 7.91797 28.3359 7.9375 27.9141 7.92188C27.4062 7.90625 26.9805 7.81641 26.6367 7.65234C26.293 7.48047 26.0156 7.27344 25.8047 7.03125C25.5938 6.78125 25.4414 6.51172 25.3477 6.22266C25.2539 5.93359 25.2031 5.66406 25.1953 5.41406C25.1875 5.16406 25.2617 4.90234 25.418 4.62891C25.5742 4.35547 25.793 4.10547 26.0742 3.87891C26.3633 3.65234 26.7109 3.46875 27.1172 3.32812C27.5234 3.17969 27.9688 3.10547 28.4531 3.10547C28.7344 3.10547 28.9922 3.14062 29.2266 3.21094C29.4688 3.27344 29.6875 3.35938 29.8828 3.46875C30.0859 3.57812 30.2617 3.70312 30.4102 3.84375C30.5586 3.97656 30.6836 4.11328 30.7852 4.25391C30.8867 4.40234 30.9727 4.55859 31.043 4.72266C31.1055 4.86328 31.1562 5.02344 31.1953 5.20312C31.2344 5.38281 31.2461 5.56641 31.2305 5.75391C30.6367 5.76953 30.1562 5.78125 29.7891 5.78906C29.4297 5.79688 29.1484 5.80078 28.9453 5.80078H28.418H28.0195C27.8789 5.80078 27.6953 5.80469 27.4688 5.8125C27.2422 5.82031 26.9648 5.83203 26.6367 5.84766C26.6758 6.16016 26.7734 6.40234 26.9297 6.57422C27.0938 6.73828 27.2656 6.86328 27.4453 6.94922C27.6484 7.04297 27.8711 7.09766 28.1133 7.11328ZM27.0586 5.00391C27.3086 5.01953 27.5156 5.03125 27.6797 5.03906C27.8516 5.04688 27.9922 5.05469 28.1016 5.0625C28.2188 5.07031 28.3125 5.07422 28.3828 5.07422H28.6758C28.8711 5.07422 29.2344 5.0625 29.7656 5.03906C29.7422 4.69531 29.668 4.43359 29.543 4.25391C29.4258 4.07422 29.3008 3.94141 29.168 3.85547C29.0117 3.76172 28.8398 3.70703 28.6523 3.69141C28.1445 3.69922 27.7656 3.80469 27.5156 4.00781C27.2734 4.21094 27.1211 4.54297 27.0586 5.00391ZM31.2539 2.49609C31.4805 2.49609 31.668 2.5 31.8164 2.50781C31.9648 2.50781 32.082 2.50781 32.168 2.50781H32.4023H32.6719C32.7812 2.50781 32.9258 2.50781 33.1055 2.50781C33.293 2.5 33.5352 2.48828 33.832 2.47266C33.6914 2.50391 33.582 2.53906 33.5039 2.57812C33.4258 2.60938 33.3672 2.64453 33.3281 2.68359C33.2812 2.72266 33.2539 2.76562 33.2461 2.8125C33.2539 2.875 33.2812 2.97266 33.3281 3.10547C33.3672 3.22266 33.4336 3.38281 33.5273 3.58594C33.6289 3.78906 33.7773 4.0625 33.9727 4.40625C34.3008 4.03125 34.5508 3.73438 34.7227 3.51562C34.8945 3.29688 35.0234 3.12891 35.1094 3.01172C35.1953 2.87891 35.2461 2.78906 35.2617 2.74219C35.2539 2.70312 35.2422 2.66406 35.2266 2.625C35.2031 2.5625 35.1445 2.46484 35.0508 2.33203C35.2617 2.34766 35.4453 2.35938 35.6016 2.36719C35.7578 2.36719 35.8906 2.37109 36 2.37891C36.125 2.38672 36.2266 2.39062 36.3047 2.39062C36.3906 2.39062 36.5156 2.38672 36.6797 2.37891C36.8125 2.37109 36.9922 2.36328 37.2188 2.35547C37.4531 2.33984 37.7461 2.31641 38.0977 2.28516C37.8086 2.42578 37.5625 2.5625 37.3594 2.69531C37.1562 2.82031 36.9883 2.93359 36.8555 3.03516C36.6992 3.15234 36.5703 3.26172 36.4688 3.36328C36.3672 3.48047 36.2422 3.625 36.0938 3.79688C35.9609 3.95312 35.7969 4.14844 35.6016 4.38281C35.4141 4.60938 35.1836 4.89453 34.9102 5.23828C35.1133 5.58984 35.3047 5.89062 35.4844 6.14062C35.6719 6.39062 35.832 6.59766 35.9648 6.76172C36.1211 6.95703 36.2656 7.11328 36.3984 7.23047C36.5312 7.34766 36.6758 7.46484 36.832 7.58203C36.9648 7.68359 37.1172 7.79297 37.2891 7.91016C37.4688 8.01953 37.6602 8.11719 37.8633 8.20312C37.6602 8.21875 37.4609 8.23047 37.2656 8.23828C37.0781 8.23828 36.9102 8.24609 36.7617 8.26172C36.5898 8.27734 36.4258 8.28906 36.2695 8.29688C36.1133 8.3125 35.9531 8.32422 35.7891 8.33203C35.6484 8.33984 35.4922 8.34766 35.3203 8.35547C35.1484 8.36328 34.9727 8.36719 34.793 8.36719C34.8633 8.29688 34.918 8.23047 34.957 8.16797C34.9961 8.10547 35.0273 8.05078 35.0508 8.00391C35.082 7.94922 35.1016 7.89844 35.1094 7.85156C35.1016 7.78906 35.0625 7.6875 34.9922 7.54688C34.9297 7.42188 34.832 7.25 34.6992 7.03125C34.5664 6.80469 34.3711 6.5 34.1133 6.11719C33.9336 6.30469 33.7891 6.46875 33.6797 6.60938C33.5781 6.75 33.5 6.86719 33.4453 6.96094C33.3828 7.07031 33.3398 7.16016 33.3164 7.23047C33.3008 7.30078 33.3008 7.37891 33.3164 7.46484C33.332 7.53516 33.3555 7.62109 33.3867 7.72266C33.418 7.81641 33.4727 7.91406 33.5508 8.01562C33.1602 8.03906 32.832 8.05078 32.5664 8.05078H32.168C32.043 8.05078 31.8945 8.04688 31.7227 8.03906C31.5742 8.03125 31.3906 8.02734 31.1719 8.02734C30.9453 8.01953 30.6836 8.00781 30.3867 7.99219C30.4727 7.96094 30.5625 7.92188 30.6562 7.875C30.75 7.82812 30.832 7.78516 30.9023 7.74609C30.9883 7.69922 31.0703 7.64844 31.1484 7.59375C31.2344 7.52344 31.3711 7.39062 31.5586 7.19531C31.7148 7.03125 31.9297 6.80078 32.2031 6.50391C32.4766 6.19922 32.832 5.79297 33.2695 5.28516C33.0117 4.81641 32.8008 4.44531 32.6367 4.17188C32.4805 3.89062 32.3594 3.67188 32.2734 3.51562C32.1719 3.33594 32.0977 3.21484 32.0508 3.15234C32.0039 3.08984 31.9414 3.01953 31.8633 2.94141C31.7383 2.81641 31.5352 2.66797 31.2539 2.49609ZM38.2383 7.71094C38.5195 7.67188 38.7383 7.71875 38.8945 7.85156C39.0586 7.98438 39.1367 8.16797 39.1289 8.40234C39.1211 8.51953 39.0977 8.61328 39.0586 8.68359C39.0195 8.75391 38.9648 8.80859 38.8945 8.84766C38.832 8.87891 38.7539 8.90625 38.6602 8.92969C38.5742 8.94531 38.4727 8.96094 38.3555 8.97656C38.2383 9 38.125 8.99609 38.0156 8.96484C37.9062 8.92578 37.8086 8.87109 37.7227 8.80078C37.6367 8.73047 37.5664 8.65234 37.5117 8.56641C37.4648 8.48047 37.4414 8.39453 37.4414 8.30859C37.4414 8.21484 37.4648 8.13672 37.5117 8.07422C37.5664 8.00391 37.6328 7.94531 37.7109 7.89844C37.7969 7.84375 37.8828 7.80469 37.9688 7.78125C38.0625 7.75 38.1523 7.72656 38.2383 7.71094Z" fill="#808080"/>
</svg>
